# Blender 4.0.2
# www.blender.org
o Plane
v 0.000000 0.000000 0.000000
v 0.000000 -0.596768 0.010076
v 0.000000 -0.406242 -0.193536
v -0.000000 -1.693327 -0.676362
v -0.000000 -1.214617 -2.214179
v 0.000000 -0.648482 -1.737864
v 0.000000 3.941010 -3.607990
v 0.000000 4.329691 -2.636058
v 0.000000 39.611889 -6.748655
v 0.000000 38.947033 -6.382929
v 0.000000 24.112312 -5.413354
v 0.000000 23.879917 -5.710811
v 0.000000 4.188872 -3.362009
v 0.000000 4.324326 -2.989510
v -0.000000 -1.220060 -0.852756
vn 1.0000 -0.0000 -0.0000
vt 0.002100 0.023289
vt 0.006175 0.028582
vt 0.000027 0.037435
vt 0.022575 0.000026
vt 0.057074 0.017301
vt 0.024912 0.011897
vt 0.043621 0.028838
vt 0.070048 0.144575
vt 0.045567 0.149998
vt 0.042511 0.624062
vt 0.053943 0.151240
vt 0.063273 0.149482
vt 0.000026 0.982840
vt 0.006096 0.999974
vt 0.034579 0.628403
s 0
f 2/1/1 3/2/1 1/3/1
f 3/2/1 2/1/1 4/4/1
f 4/4/1 5/5/1 15/6/1
f 5/5/1 6/7/1 15/6/1
f 7/8/1 6/7/1 5/5/1
f 6/7/1 7/8/1 8/9/1
f 12/10/1 14/11/1 13/12/1
f 10/13/1 12/10/1 9/14/1
f 7/8/1 13/12/1 8/9/1
f 14/11/1 8/9/1 13/12/1
f 4/4/1 15/6/1 3/2/1
f 12/10/1 11/15/1 14/11/1
f 10/13/1 11/15/1 12/10/1
