# Blender 4.0.2
# www.blender.org
o Sun
v 0.000000 0.000000 -1.500000
v -1.060660 0.000000 -1.060660
v -1.500000 0.000000 0.000000
v -1.060660 0.000000 1.060660
v 0.000000 0.000000 1.500000
v 1.060660 0.000000 1.060660
v 1.500000 0.000000 0.000000
v 1.060660 0.000000 -1.060660
v 0.382683 0.000000 -0.923880
v -0.382683 0.000000 -0.923880
v -0.923880 0.000000 -0.382683
v -0.923880 0.000000 0.382683
v -0.382683 0.000000 0.923880
v 0.382683 0.000000 0.923880
v 0.923880 0.000000 0.382683
v 0.923880 0.000000 -0.382683
vn -0.0000 1.0000 -0.0000
vt 0.244929 0.755071
vt 0.500000 0.860725
vt 0.292935 0.999900
vt 0.000100 0.707065
vt 0.139275 0.500000
vt 0.244929 0.244929
vt 0.000100 0.292935
vt 0.292935 0.000100
vt 0.500000 0.139275
vt 0.755071 0.244929
vt 0.707065 0.000100
vt 0.860725 0.500000
vt 0.999900 0.292935
vt 0.755071 0.755071
vt 0.999900 0.707065
vt 0.707066 0.999900
s 0
f 12/1/1 11/2/1 3/3/1
f 4/4/1 13/5/1 12/1/1
f 14/6/1 13/5/1 5/7/1
f 6/8/1 15/9/1 14/6/1
f 16/10/1 15/9/1 7/11/1
f 9/12/1 16/10/1 8/13/1
f 10/14/1 9/12/1 1/15/1
f 2/16/1 11/2/1 10/14/1
f 13/5/1 15/9/1 9/12/1
f 9/12/1 10/14/1 11/2/1
f 11/2/1 12/1/1 13/5/1
f 13/5/1 14/6/1 15/9/1
f 15/9/1 16/10/1 9/12/1
f 9/12/1 11/2/1 13/5/1
