# Blender 4.0.2
# www.blender.org
o Cloud
v 0.822240 0.010661 0.000000
v 0.000000 -0.604299 -0.008639
v -0.625768 0.010661 0.000000
v 0.000000 0.901679 0.000000
v 1.149693 0.264048 -1.000000
v 0.149693 -0.725432 -1.000000
v -0.850307 0.264048 -1.000000
v 0.149693 1.124019 -1.000000
v 1.149693 0.264048 1.000000
v 0.149693 -0.725432 1.000000
v -0.850307 0.264048 1.000000
v 0.149693 1.014760 1.000000
v 0.800172 0.149393 1.987557
v 0.149693 -0.716539 1.987557
v -0.500786 0.149393 1.987557
v 0.149693 0.806370 1.987557
v 0.544817 -0.048880 2.290610
v 0.271012 -0.423408 2.355292
v 0.044812 -0.079063 2.419975
v 0.318617 0.205089 2.355292
v 0.844325 0.071084 -2.209085
v 0.149693 -0.664960 -2.151169
v -0.520327 0.071084 -2.182343
v 0.149693 0.738454 -2.161247
v 0.604812 -0.262216 -2.541109
v 0.234155 -0.567607 -2.541109
v -0.136502 -0.262216 -2.541109
v 0.234155 0.043174 -2.541109
vn -0.7773 0.5459 0.3128
vn 0.7111 0.6562 0.2524
vn 0.7025 -0.7099 0.0501
vn -0.7009 -0.7130 -0.0187
vn -0.6004 0.7997 -0.0006
vn 0.5576 0.7427 -0.3708
vn 0.5901 -0.7865 -0.1820
vn -0.7032 -0.7107 0.0222
vn -0.7029 0.6960 0.1469
vn 0.5742 0.7649 0.2920
vn 0.7995 -0.6006 0.0054
vn -0.6938 -0.7012 0.1642
vn 0.5946 0.3446 0.7264
vn 0.8087 -0.5601 0.1797
vn -0.6576 -0.4940 0.5688
vn -0.3984 0.3945 0.8280
vn 0.2517 -0.0223 0.9676
vn 0.7019 -0.7094 -0.0641
vn -0.7383 -0.6736 -0.0354
vn -0.6690 0.6810 -0.2978
vn 0.6323 0.7353 -0.2441
vn -0.3701 0.4492 -0.8132
vn 0.4035 0.4760 -0.7815
vn 0.7248 -0.6721 0.1518
vn -0.6038 -0.7328 -0.3137
vn -0.0000 -0.0000 -1.0000
vn -0.6504 0.7563 0.0708
vn 0.6042 0.7026 0.3759
vn 0.5873 -0.7879 0.1850
vn -0.7032 -0.7107 -0.0222
vn -0.7773 0.5459 -0.3128
vn 0.7224 0.6667 -0.1835
vn 0.7025 -0.7099 -0.0501
vn -0.7007 -0.7132 0.0183
vn -0.5742 0.7649 0.2920
vn 0.7029 0.6960 0.1469
vn 0.6938 -0.7012 0.1642
vn -0.7995 -0.6006 0.0054
vn 0.5484 0.5430 0.6359
vn 0.7698 -0.5783 0.2703
vn -0.6061 -0.5124 0.6084
vn -0.3760 0.5346 0.7569
vn 0.2514 -0.0166 0.9677
vn 0.7254 -0.6874 -0.0361
vn -0.7011 -0.7086 -0.0800
vn -0.6323 0.7353 -0.2441
vn 0.6556 0.7022 -0.2776
vn -0.3798 0.4076 -0.8304
vn 0.4005 0.4860 -0.7768
vn 0.6349 -0.7706 -0.0549
vn -0.7270 -0.6685 -0.1568
vt 0.000000 0.000000
s 0
f 4/1/1 7/1/1 3/1/1
f 1/1/2 8/1/2 4/1/2
f 1/1/3 6/1/3 5/1/3
f 3/1/4 6/1/4 2/1/4
f 4/1/5 11/1/5 12/1/5
f 1/1/6 12/1/6 9/1/6
f 1/1/7 10/1/7 2/1/7
f 3/1/8 10/1/8 11/1/8
f 12/1/9 15/1/9 16/1/9
f 12/1/10 13/1/10 9/1/10
f 10/1/11 13/1/11 14/1/11
f 10/1/12 15/1/12 11/1/12
f 13/1/13 20/1/13 17/1/13
f 14/1/14 17/1/14 18/1/14
f 14/1/15 19/1/15 15/1/15
f 15/1/16 20/1/16 16/1/16
f 19/1/17 17/1/17 20/1/17
f 6/1/18 21/1/18 5/1/18
f 6/1/19 23/1/19 22/1/19
f 7/1/20 24/1/20 23/1/20
f 5/1/21 24/1/21 8/1/21
f 23/1/22 28/1/22 27/1/22
f 21/1/23 28/1/23 24/1/23
f 22/1/24 25/1/24 21/1/24
f 22/1/25 27/1/25 26/1/25
f 28/1/26 26/1/26 27/1/26
f 4/1/27 8/1/27 7/1/27
f 1/1/28 5/1/28 8/1/28
f 1/1/29 2/1/29 6/1/29
f 3/1/30 7/1/30 6/1/30
f 4/1/31 3/1/31 11/1/31
f 1/1/32 4/1/32 12/1/32
f 1/1/33 9/1/33 10/1/33
f 3/1/34 2/1/34 10/1/34
f 12/1/35 11/1/35 15/1/35
f 12/1/36 16/1/36 13/1/36
f 10/1/37 9/1/37 13/1/37
f 10/1/38 14/1/38 15/1/38
f 13/1/39 16/1/39 20/1/39
f 14/1/40 13/1/40 17/1/40
f 14/1/41 18/1/41 19/1/41
f 15/1/42 19/1/42 20/1/42
f 19/1/43 18/1/43 17/1/43
f 6/1/44 22/1/44 21/1/44
f 6/1/45 7/1/45 23/1/45
f 7/1/46 8/1/46 24/1/46
f 5/1/47 21/1/47 24/1/47
f 23/1/48 24/1/48 28/1/48
f 21/1/49 25/1/49 28/1/49
f 22/1/50 26/1/50 25/1/50
f 22/1/51 23/1/51 27/1/51
f 28/1/26 25/1/26 26/1/26
