# Blender 4.0.2
# www.blender.org
o Cloud_LP
v 0.000000 -0.604299 -0.008639
v 0.000000 0.901679 0.000000
v 0.000000 -0.725432 -1.000000
v 0.000000 1.124019 -1.000000
v 0.000000 -0.725432 1.000000
v 0.000000 1.014760 1.000000
v 0.000000 -0.716539 1.987557
v 0.000000 0.806370 1.987557
v 0.000000 -0.423408 2.355292
v 0.000000 -0.079063 2.419975
v 0.000000 0.205089 2.355292
v 0.000000 -0.664960 -2.151169
v 0.000000 0.738454 -2.161247
v 0.000000 -0.567607 -2.541109
v 0.000000 0.043174 -2.541109
vn -1.0000 -0.0000 -0.0000
vt 0.000000 0.000000
s 0
f 3/1/1 2/1/1 4/1/1
f 3/1/1 13/1/1 12/1/1
f 1/1/1 6/1/1 2/1/1
f 5/1/1 8/1/1 6/1/1
f 15/1/1 12/1/1 13/1/1
f 10/1/1 11/1/1 9/1/1
f 7/1/1 11/1/1 8/1/1
f 3/1/1 1/1/1 2/1/1
f 3/1/1 4/1/1 13/1/1
f 1/1/1 5/1/1 6/1/1
f 5/1/1 7/1/1 8/1/1
f 15/1/1 14/1/1 12/1/1
f 7/1/1 9/1/1 11/1/1
