# Blender 4.0.2
# www.blender.org
o FishBall
v 0.000000 -1.142491 -0.000000
v 0.788580 -0.670823 -1.790910
v 1.275960 -0.670823 0.684053
v 0.000000 -0.313682 1.966771
v -1.275960 -0.670823 0.684053
v -0.788580 -0.670823 -1.790910
v 1.275960 0.670822 -0.684053
v 0.788580 0.670822 1.865410
v -0.788580 0.670822 1.865411
v -1.275960 0.670822 -0.684053
v -0.000000 0.670822 -2.213702
v 0.000000 1.500000 -0.000000
v 0.000000 -0.670823 -1.790910
v 0.000000 -1.181361 -2.963712
v 0.000000 -0.659107 -0.920985
v -0.000000 0.236247 -4.349817
v -0.000000 -0.866337 -4.940486
v 1.163196 -0.003886 1.468281
v -1.182168 -0.003886 1.468281
v 1.423380 0.599854 0.910315
v 0.877510 0.433102 2.131471
v -0.740237 0.433102 2.131471
v -1.541681 0.599854 0.910315
v -0.000000 1.152809 -2.421618
v -0.000000 0.746428 -1.457644
v 0.000000 0.261739 2.860588
v -0.000000 -1.194970 -1.630026
vn 0.3809 -0.9216 -0.0750
vn -0.0000 -0.9670 -0.2547
vn 0.1313 -0.9135 0.3850
vn -0.1313 -0.9135 0.3850
vn -0.3809 -0.9216 -0.0750
vn -0.0000 -0.3006 -0.9538
vn 0.9627 -0.1933 -0.1896
vn 0.5910 -0.4014 0.6997
vn -0.5910 -0.4014 0.6997
vn -0.9627 -0.1933 -0.1896
vn 0.7451 0.2421 -0.6215
vn 0.9647 0.1881 0.1844
vn -0.9647 0.1881 0.1844
vn -0.7451 0.2421 -0.6215
vn 0.3876 0.8632 -0.3233
vn 0.5828 0.8049 0.1114
vn -0.0000 0.9138 0.4062
vn -0.5828 0.8049 0.1114
vn -0.3876 0.8632 -0.3233
vn 1.0000 -0.0000 -0.0000
vn 0.9137 -0.0186 0.4059
vn -0.8353 0.0106 0.5497
vn 0.7457 -0.5602 0.3606
vn -0.7457 -0.5602 0.3606
vn -0.0000 0.9249 0.3802
vt 0.128065 0.718822
vt 0.144963 0.654816
vt 0.176400 0.732898
vt 0.094098 0.664852
vt 0.145546 0.782908
vt 0.094098 0.749136
vt 0.178041 0.847481
vt 0.176400 0.812367
vt 0.212806 0.806304
vt 0.211214 0.914289
vt 0.234322 0.869296
vt 0.176262 0.774057
vt 0.188837 0.744442
vt 0.176400 0.685239
vt 0.218259 0.691245
vt 0.176400 0.806304
vt 0.224050 0.770393
vt 0.267464 0.916085
vt 0.047230 0.815159
vt 0.048167 0.772431
vt 0.093828 0.818240
vt 0.267464 0.847663
vt 0.047230 0.687469
vt 0.092581 0.682273
vt 0.094098 0.740829
vt 0.615843 0.638303
vt 0.762452 0.604010
vt 0.636402 0.802605
vt 0.514864 0.621247
vt 0.892948 0.797497
vt 0.984681 0.682328
vt 0.376290 0.227498
vt 0.270520 0.366125
vt 0.270520 0.093542
vt 0.270520 0.240743
vt 0.164439 0.390833
vt 0.164439 0.093542
vt 0.650276 0.862817
vt 0.547256 0.795357
vt 0.154687 0.811930
vt 0.193461 0.654817
vt 0.057531 0.654816
vt 0.608308 0.574205
s 0
f 1/1/1 2/2/1 3/3/1
f 2/2/2 1/1/2 6/4/2
f 1/1/3 3/3/3 4/5/3
f 1/1/4 4/5/4 5/6/4
f 1/1/5 5/6/5 6/4/5
f 2/7/6 6/8/6 11/9/6
f 3/10/7 2/7/7 7/11/7
f 4/5/8 3/3/8 8/12/8
f 5/13/9 4/14/9 9/15/9
f 6/16/10 5/13/10 10/17/10
f 2/7/11 11/9/11 7/11/11
f 3/10/12 7/11/12 8/18/12
f 5/13/13 9/15/13 10/17/13
f 6/19/14 10/20/14 11/21/14
f 7/11/15 11/9/15 12/22/15
f 8/18/16 7/11/16 12/22/16
f 9/23/17 8/24/17 12/25/17
f 10/20/18 9/23/18 12/25/18
f 11/21/19 10/20/19 12/25/19
f 13/26/20 14/27/20 11/28/20
f 14/27/20 13/26/20 15/29/20
f 11/28/20 14/27/20 16/30/20
f 14/27/20 17/31/20 16/30/20
f 18/32/21 20/33/21 21/34/21
f 19/35/22 22/36/22 23/37/22
f 11/28/20 24/38/20 25/39/20
f 11/28/20 16/30/20 24/38/20
f 8/12/23 26/40/23 4/5/23
f 4/14/24 26/41/24 9/15/24
f 8/24/25 9/23/25 26/42/25
f 14/27/20 15/29/20 27/43/20
