# Blender 4.0.2
# www.blender.org
o FishElongated
v 0.000000 1.350000 -1.350000
v 0.000000 1.350000 2.524884
v 1.169134 0.675000 -1.350000
v 1.169134 0.675000 1.350000
v 1.169134 -0.675000 -1.350000
v 1.169134 -0.675000 1.350000
v 0.000000 -1.350000 -1.350000
v 0.000000 -1.350000 3.100000
v -1.169134 -0.675000 -1.350000
v -1.169134 -0.675000 1.350000
v -1.169134 0.675000 -1.350000
v -1.169134 0.675000 1.350000
v 0.000000 -0.273677 3.691774
v 1.169134 0.003999 1.529564
v -1.169134 0.003999 1.529564
v 0.000000 -0.653792 3.506894
v 0.000000 0.613367 -5.569924
v 0.438425 0.675000 -3.850000
v 0.438425 -0.675000 -3.850000
v 0.000000 -0.613367 -5.569924
v -0.438425 -0.675000 -3.850000
v -0.438425 0.675000 -3.850000
v 0.000000 2.199043 -7.993328
v 0.000000 -2.199043 -7.993328
v 0.815996 0.663064 2.047927
v 0.502499 1.103315 2.179861
v 0.289886 0.973935 2.631510
v -0.502499 1.103315 2.179861
v -0.815996 0.663064 2.047927
v -0.289886 0.973935 2.631510
v 0.434829 0.521088 2.690577
v -0.434829 0.521088 2.690577
vn 0.5000 0.8660 -0.0000
vn 1.0000 -0.0000 -0.0000
vn 0.5000 -0.8660 -0.0000
vn -0.5000 -0.8660 -0.0000
vn -1.0000 -0.0000 -0.0000
vn -0.5000 0.8660 -0.0000
vn 0.9598 -0.0000 -0.2805
vn 0.8652 0.1296 0.4845
vn -0.8652 0.1296 0.4845
vn -0.8717 -0.1253 0.4737
vn -0.0000 -0.9919 -0.1274
vn -0.0000 0.9489 0.3157
vn -0.8455 -0.2694 0.4610
vn 0.8717 -0.1253 0.4737
vn 0.8455 -0.2694 0.4610
vn -0.9598 -0.0000 -0.2805
vn 0.4725 0.8682 -0.1516
vn 0.4947 -0.8569 -0.1446
vn -0.4947 0.8569 -0.1446
vn -0.4725 -0.8682 -0.1516
vn 0.9690 -0.0000 -0.2470
vn -0.9690 -0.0000 -0.2470
vn 0.7755 0.4078 0.4819
vn -0.7755 0.4078 0.4819
vn -0.7554 0.3824 0.5321
vn 0.7554 0.3824 0.5321
vn 0.7821 0.3201 0.5346
vn -0.7821 0.3201 0.5346
vn 0.4947 0.8569 -0.1446
vn 0.4725 -0.8682 -0.1516
vn -0.4725 0.8682 -0.1516
vn -0.4947 -0.8569 -0.1446
vt 0.909823 0.729200
vt 0.894557 0.771523
vt 0.889515 0.718930
vt 0.859561 0.724206
vt 0.659372 0.935703
vt 1.009889 0.739516
vt 1.009889 0.935703
vt 0.659372 0.543329
vt 1.009889 0.543329
vt 0.768460 0.708722
vt 0.799092 0.766828
vt 0.768460 0.767351
vt 0.951821 0.809302
vt 0.931972 0.743791
vt 0.962212 0.748990
vt 0.686391 0.798907
vt 0.437383 0.669843
vt 0.686391 0.669843
vt 0.864603 0.776799
vt 0.880004 0.777643
vt 0.962404 0.542245
vt 0.200214 0.739583
vt 0.725493 0.519780
vt 0.962404 0.936922
vt 0.725493 0.959386
vt 0.799092 0.708198
vt 0.783867 0.704559
vt 0.789507 0.782559
vt 0.261850 0.679039
vt 0.798109 0.679039
vt 0.195240 0.247345
vt 0.195240 0.301977
vt 0.149731 0.271752
vt 0.150734 0.218991
vt 0.293906 0.796191
vt 0.762241 0.786084
vt 0.278238 0.786084
vt 0.754477 0.685495
vt 0.307171 0.672249
vt 0.685769 0.800713
vt 0.449891 0.678454
vt 0.685769 0.678454
vt 0.696656 0.774768
vt 0.421067 0.813608
vt 0.243296 0.751833
vt 0.719115 0.751714
vt 0.409647 0.683847
vt 0.709236 0.589162
vt 0.426394 0.708314
vt 0.691581 0.631801
vt 0.406608 0.803826
vt 0.202529 0.738629
vt 0.267695 0.793015
vt 0.267695 0.675735
vt 0.289151 0.684036
vt 0.449891 0.800713
vt 0.289151 0.795131
vt 0.082778 0.786921
vt 0.228652 0.617631
vt 0.228652 0.882369
vt 0.088592 0.086051
vt 0.251969 0.144039
vt 0.236585 0.303984
vt 0.251969 0.144039
vt 0.415345 0.086051
vt 0.267353 0.303984
vt 0.913354 0.739583
vt 0.088592 0.323062
vt 0.415345 0.323062
vt 0.917059 0.804678
vt 0.339671 0.739516
vt 0.917059 0.830347
vt 0.437383 0.798907
vt 0.677179 0.916492
vt 0.701019 0.913557
vt 0.082778 0.713079
s 0
f 1/1/1 4/2/1 3/3/1
f 4/2/2 5/4/2 3/3/2
f 6/5/3 7/6/3 5/7/3
f 7/6/4 10/8/4 9/9/4
f 10/10/5 11/11/5 9/12/5
f 12/13/6 1/14/6 11/15/6
f 5/16/7 18/17/7 3/18/7
f 6/19/2 4/2/2 14/20/2
f 4/21/8 13/22/8 14/23/8
f 13/22/9 12/24/9 15/25/9
f 12/26/5 10/10/5 15/27/5
f 10/28/10 16/29/10 15/30/10
f 14/31/11 13/32/11 15/33/11
f 14/31/12 15/33/12 16/34/12
f 16/29/13 10/28/13 8/35/13
f 14/36/14 16/37/14 6/38/14
f 6/38/15 16/37/15 8/39/15
f 11/40/16 21/41/16 9/42/16
f 1/43/17 18/44/17 17/45/17
f 7/46/18 19/47/18 5/48/18
f 1/43/19 22/49/19 11/50/19
f 7/46/20 21/51/20 20/52/20
f 18/17/21 20/53/21 17/54/21
f 20/55/22 22/56/22 17/57/22
f 17/58/2 24/59/2 23/60/2
f 25/61/23 26/62/23 27/63/23
f 28/64/24 29/65/24 30/66/24
f 12/24/25 13/22/25 2/67/25
f 2/67/26 13/22/26 4/21/26
f 31/68/27 25/61/27 27/63/27
f 29/65/28 32/69/28 30/66/28
f 1/1/1 2/70/1 4/2/1
f 4/2/2 6/19/2 5/4/2
f 6/5/3 8/71/3 7/6/3
f 7/6/4 8/71/4 10/8/4
f 10/10/5 12/26/5 11/11/5
f 12/13/6 2/72/6 1/14/6
f 5/16/7 19/73/7 18/17/7
f 11/40/16 22/56/16 21/41/16
f 1/43/29 3/74/29 18/44/29
f 7/46/30 20/52/30 19/47/30
f 1/43/31 17/45/31 22/49/31
f 7/46/32 9/75/32 21/51/32
f 18/17/21 19/73/21 20/53/21
f 20/55/22 21/41/22 22/56/22
f 17/58/2 20/76/2 24/59/2
