# Blender 4.0.2
# www.blender.org
o Squid
v 1.000000 -0.000000 2.572138
v -0.000000 1.000000 2.572138
v -1.000000 0.000000 2.572138
v -0.000000 -1.000000 2.572138
v 0.646446 -0.000000 0.272139
v -0.000000 0.646447 0.272139
v -0.646447 0.000000 0.272139
v -0.000000 -0.646447 0.272139
v 0.250000 0.000000 5.072138
v -0.000000 0.250000 5.072138
v -0.250000 0.000000 5.072138
v -0.000000 -0.250000 5.072138
v -0.000000 1.000000 0.072139
v 1.000000 -0.000000 0.072139
v -1.000000 0.000000 0.072139
v -0.000000 -1.000000 0.072139
v 0.905025 -0.000000 -1.052861
v -0.000000 0.905025 -1.052861
v -0.905026 0.000000 -1.052861
v -0.000000 -0.905025 -1.052861
v -0.000000 -1.362101 4.472702
v -0.000000 -2.236205 3.222703
v -0.000000 -1.512101 2.772138
v -0.000000 1.362101 4.472702
v -0.000000 2.236205 3.222703
v -0.000000 1.512101 2.772138
v -0.000000 0.000000 5.322138
v 0.425476 0.681262 -0.227861
v 0.594523 0.318738 -0.227861
v 0.425476 0.681262 -0.627861
v 0.594523 0.318738 -0.627861
v 0.425476 -0.681262 -0.227861
v 0.594523 -0.318738 -0.227861
v 0.425476 -0.681262 -0.627861
v 0.594523 -0.318738 -0.627861
v -0.337720 0.500653 -1.050000
v 0.049852 0.401718 -1.050000
v -0.094467 0.644971 -1.050000
v -0.193402 0.257400 -1.050000
v -0.455356 0.781016 -2.550000
v -0.067784 0.682081 -2.550000
v -0.212103 0.925334 -2.550000
v -0.311038 0.537762 -2.550000
v -0.302668 1.314831 -4.050000
v -0.084462 1.259130 -4.050000
v -0.165715 1.396084 -4.050000
v -0.221416 1.177877 -4.050000
v 0.204895 0.065868 -1.050000
v 0.595387 0.152561 -1.050000
v 0.356795 0.304461 -1.050000
v 0.443487 -0.086032 -1.050000
v 0.394036 0.155064 -2.644568
v 0.652281 0.214267 -2.578054
v 0.494493 0.318002 -2.618694
v 0.551825 0.051329 -2.603928
v 0.627157 0.112414 -4.041374
v 0.735952 0.136568 -4.041374
v 0.669478 0.178889 -4.041374
v 0.693631 0.070093 -4.041374
v -0.614245 -0.040251 -1.050000
v -0.229556 0.069360 -1.050000
v -0.476706 0.206899 -1.050000
v -0.367095 -0.177790 -1.050000
v -0.580251 0.187746 -2.611311
v -0.225522 0.288820 -2.611311
v -0.453423 0.415647 -2.611311
v -0.352349 0.060919 -2.611311
v -0.520629 0.024547 -4.111311
v -0.410860 0.055823 -4.111311
v -0.481383 0.095069 -4.111311
v -0.450106 -0.014699 -4.111311
v -0.324434 -0.462061 -1.050000
v 0.065115 -0.552897 -1.050000
v -0.084242 -0.312704 -1.050000
v -0.175078 -0.702254 -1.050000
v -0.258459 -0.385929 -2.611311
v 0.027535 -0.452618 -2.611311
v -0.082117 -0.276277 -2.611311
v -0.148806 -0.562270 -2.611311
v -0.116357 -0.273608 -4.111311
v 0.074043 -0.318006 -4.111311
v 0.001042 -0.200607 -4.111311
v -0.043356 -0.391007 -4.111311
v -0.136528 0.016364 -1.050000
v 0.222403 -0.160181 -1.050000
v 0.131210 0.107557 -1.050000
v -0.045335 -0.251374 -1.050000
v -0.035831 0.133288 -2.611311
v 0.195888 0.019314 -2.611311
v 0.137016 0.192161 -2.611311
v 0.023042 -0.039559 -2.611311
v -0.034950 0.345755 -4.111311
v 0.107556 0.275662 -4.111311
v 0.071350 0.381962 -4.111311
v 0.001256 0.239455 -4.111311
vn -0.5774 -0.5773 0.5774
vn 0.7071 -0.7071 -0.0000
vn 0.7071 0.7071 -0.0000
vn -0.7071 0.7071 -0.0000
vn -0.7071 -0.7071 -0.0000
vn 0.7005 -0.7005 0.1367
vn -0.4417 -0.4417 -0.7809
vn 0.4417 -0.4417 -0.7809
vn 0.4417 0.4417 -0.7809
vn -0.4417 0.4417 -0.7809
vn -0.0000 -0.0000 -1.0000
vn -0.7005 0.7005 0.1367
vn -0.7005 -0.7005 0.1367
vn 0.7005 0.7005 0.1367
vn 1.0000 -0.0000 -0.0000
vn 0.6917 0.6917 0.2075
vn 0.6917 -0.6917 0.2075
vn 0.5774 -0.5774 0.5774
vn 0.5774 0.5773 0.5774
vn -0.5773 0.5774 0.5774
vn 0.9063 0.4226 -0.0000
vn 0.9063 -0.4226 -0.0000
vn -0.6917 0.6917 0.2075
vn -0.6917 -0.6917 0.2075
vn 0.9618 -0.2455 -0.1213
vn 0.2442 0.9565 0.1596
vn 0.9678 -0.2471 -0.0476
vn 0.2320 0.9087 0.3470
vn 0.9725 0.2159 0.0869
vn -0.2300 0.9728 0.0271
vn 0.9718 0.2144 0.0986
vn -0.2163 0.9741 -0.0658
vn 0.9605 0.2737 0.0509
vn -0.2716 0.9531 0.1333
vn 0.9589 0.2732 -0.0763
vn -0.2722 0.9554 -0.1148
vn 0.9739 -0.2271 -0.0040
vn 0.2267 0.9723 0.0570
vn 0.9730 -0.2269 0.0425
vn 0.2261 0.9696 0.0940
vn 0.8971 -0.4413 -0.0206
vn 0.4394 0.8933 0.0952
vn 0.8933 -0.4394 -0.0947
vn 0.4378 0.8901 0.1263
vn 0.9729 0.2140 0.0872
vn -0.2166 0.9758 0.0313
vn 0.9715 0.2157 0.0987
vn -0.2074 0.9762 -0.0637
vt 0.806702 0.621529
vt 0.791677 0.621529
vt 0.799189 0.610179
vt 0.695275 0.618323
vt 0.769139 0.714867
vt 0.709594 0.723011
vt 0.829239 0.610179
vt 0.889339 0.715842
vt 0.829239 0.715842
vt 0.889339 0.610179
vt 0.949439 0.715842
vt 0.829239 0.835206
vt 0.769139 0.729543
vt 0.829239 0.729543
vt 0.281383 0.548656
vt 0.021140 0.102005
vt 0.324757 0.102005
vt 0.386781 0.906046
vt 0.696158 0.506164
vt 0.696158 0.991916
vt 0.386439 0.591907
vt 0.691198 0.990378
vt 0.386439 0.904812
vt 0.400779 0.592135
vt 0.696514 0.990548
vt 0.400779 0.904994
vt 0.391277 0.594548
vt 0.691460 0.988841
vt 0.391277 0.904171
vt 0.301552 0.153025
vt 0.215114 0.239462
vt 0.215114 0.153025
vt 0.280154 0.544041
vt 0.015853 0.088482
vt 0.324204 0.088482
vt 0.054559 0.543410
vt 0.323812 0.085832
vt 0.278936 0.543410
vt 0.058339 0.548720
vt 0.326394 0.090365
vt 0.281718 0.548720
vt 0.949439 0.815757
vt 0.972498 0.795857
vt 0.972498 0.867403
vt 0.851777 0.823856
vt 0.746561 0.826975
vt 0.963753 0.767567
vt 0.986811 0.715920
vt 0.986811 0.787467
vt 0.761447 0.824939
vt 0.755542 0.837202
vt 0.866802 0.823856
vt 0.859289 0.835206
vt 0.926902 0.823856
vt 0.919389 0.835206
vt 0.911877 0.823856
vt 0.049695 0.954439
vt 0.264085 0.740049
vt 0.264085 0.954439
vt 0.049422 0.745004
vt 0.235310 0.930891
vt 0.049422 0.930891
vt 0.709545 0.802948
vt 0.695275 0.731881
vt 0.949439 0.786978
vt 0.963753 0.715920
vt 0.963753 0.795857
vt 0.977433 0.687451
vt 0.949439 0.715920
vt 0.949439 0.610179
vt 0.494945 0.142351
vt 0.052240 0.297828
vt 0.024192 0.177426
vt 0.041976 0.302189
vt 0.503567 0.189731
vt 0.514964 0.312173
vt 0.992827 0.230040
vt 0.522993 0.262753
vt 0.985797 0.179747
vt 0.992213 0.248682
vt 0.532866 0.196055
vt 0.061036 0.287953
vt 0.050406 0.181605
vt 0.041911 0.273474
vt 0.530755 0.195106
vt 0.539453 0.273474
vt 0.979089 0.211235
vt 0.544672 0.268516
vt 0.979089 0.215572
vt 0.974208 0.247677
vt 0.526930 0.115144
vt 0.047702 0.166670
vt 0.040510 0.063924
vt 0.050926 0.146120
vt 0.535488 0.251089
vt 0.047120 0.259954
vt 0.992213 0.093242
vt 0.533562 0.209888
vt 0.992213 0.186781
vt 0.991127 0.219263
vt 0.530278 0.058496
vt 0.051326 0.159074
vt 0.045544 0.035771
vt 0.042287 0.257675
vt 0.525754 0.155464
vt 0.525754 0.245951
vt 0.995949 0.098807
vt 0.534523 0.149021
vt 0.992213 0.212098
vt 0.513525 0.058311
vt 0.042153 0.179746
vt 0.025573 0.058311
vt 0.038269 0.255601
vt 0.522071 0.162784
vt 0.523559 0.238525
vt 0.985631 0.071923
vt 0.524229 0.136707
vt 0.991298 0.209020
vt 0.992213 0.255601
vt 0.754821 0.610179
vt 0.949439 0.610179
vt 0.769139 0.835206
vt 0.064514 0.548656
vt 0.386781 0.592033
vt 0.691198 0.506341
vt 0.696514 0.506581
vt 0.691460 0.509878
vt 0.301552 0.239462
vt 0.059903 0.544041
vt 0.009684 0.085832
vt 0.013663 0.090365
vt 0.049695 0.740049
vt 0.235310 0.745004
vt 0.030579 0.179747
vt 0.985181 0.297828
vt 0.059430 0.158242
vt 0.976127 0.181605
vt 0.538998 0.146120
vt 0.990161 0.063924
vt 0.042287 0.134423
vt 0.996192 0.159075
vt 0.992213 0.151856
vt 0.035964 0.138278
vt 0.992213 0.120136
s 0
f 11/1/1 12/2/1 27/3/1
f 16/4/2 1/5/2 4/6/2
f 14/7/3 2/8/3 1/9/3
f 13/10/4 3/11/4 2/8/4
f 15/12/5 4/13/5 3/14/5
f 5/15/6 20/16/6 17/17/6
f 5/18/7 13/19/7 14/20/7
f 7/21/8 13/22/8 6/23/8
f 8/24/9 15/25/9 7/26/9
f 5/27/10 16/28/10 8/29/10
f 17/30/11 19/31/11 18/32/11
f 7/33/12 18/34/12 19/35/12
f 7/36/13 20/37/13 8/38/13
f 5/39/14 18/40/14 6/41/14
f 22/42/15 23/43/15 21/44/15
f 2/8/16 9/45/16 1/9/16
f 1/5/17 12/46/17 4/6/17
f 25/47/15 24/48/15 26/49/15
f 12/46/18 9/50/18 27/51/18
f 9/45/19 10/52/19 27/53/19
f 11/54/20 27/55/20 10/56/20
f 29/57/21 30/58/21 28/59/21
f 34/60/22 33/61/22 32/62/22
f 3/11/23 10/56/23 2/8/23
f 4/13/24 11/1/24 3/14/24
f 12/46/15 21/63/15 4/6/15
f 21/63/15 23/64/15 4/6/15
f 26/65/15 24/66/15 2/67/15
f 24/68/15 10/69/15 2/70/15
f 43/71/25 38/72/25 39/73/25
f 36/74/26 41/75/26 40/76/26
f 47/77/27 42/78/27 43/71/27
f 40/76/28 45/79/28 44/80/28
f 55/81/29 50/82/29 51/83/29
f 48/84/30 53/85/30 52/86/30
f 55/81/31 58/87/31 54/88/31
f 52/86/32 57/89/32 56/90/32
f 67/91/33 62/92/33 63/93/33
f 61/94/34 64/95/34 60/96/34
f 67/91/35 70/97/35 66/98/35
f 64/95/36 69/99/36 68/100/36
f 79/101/37 74/102/37 75/103/37
f 72/104/38 77/105/38 76/106/38
f 83/107/39 78/108/39 79/101/39
f 77/105/40 80/109/40 76/106/40
f 91/110/41 86/111/41 87/112/41
f 84/113/42 89/114/42 88/115/42
f 95/116/43 90/117/43 91/110/43
f 88/115/44 93/118/44 92/119/44
f 16/4/2 14/120/2 1/5/2
f 14/7/3 13/10/3 2/8/3
f 13/10/4 15/121/4 3/11/4
f 15/12/5 16/122/5 4/13/5
f 5/15/6 8/123/6 20/16/6
f 5/18/7 6/124/7 13/19/7
f 7/21/8 15/125/8 13/22/8
f 8/24/9 16/126/9 15/25/9
f 5/27/10 14/127/10 16/28/10
f 17/30/11 20/128/11 19/31/11
f 7/33/12 6/129/12 18/34/12
f 7/36/13 19/130/13 20/37/13
f 5/39/14 17/131/14 18/40/14
f 2/8/16 10/52/16 9/45/16
f 1/5/17 9/50/17 12/46/17
f 29/57/21 31/132/21 30/58/21
f 34/60/22 35/133/22 33/61/22
f 3/11/23 11/54/23 10/56/23
f 4/13/24 12/2/24 11/1/24
f 43/71/25 42/78/25 38/72/25
f 36/74/26 37/134/26 41/75/26
f 47/77/27 46/135/27 42/78/27
f 40/76/28 41/75/28 45/79/28
f 55/81/45 54/88/45 50/82/45
f 48/84/46 49/136/46 53/85/46
f 55/81/47 59/137/47 58/87/47
f 52/86/48 53/85/48 57/89/48
f 67/91/33 66/98/33 62/92/33
f 61/94/34 65/138/34 64/95/34
f 67/91/35 71/139/35 70/97/35
f 64/95/36 65/138/36 69/99/36
f 79/101/37 78/108/37 74/102/37
f 72/104/38 73/140/38 77/105/38
f 83/107/39 82/141/39 78/108/39
f 77/105/40 81/142/40 80/109/40
f 91/110/41 90/117/41 86/111/41
f 84/113/42 85/143/42 89/114/42
f 95/116/43 94/144/43 90/117/43
f 88/115/44 89/114/44 93/118/44
