# Blender 4.0.2
# www.blender.org
o BoatWindow
v -0.818934 0.000000 -0.275000
v -0.818934 0.000000 0.275000
v -0.644313 0.400000 0.144375
v -0.644313 0.400000 -0.144375
v 0.250379 0.400000 0.240625
v 0.250379 0.400000 -0.240625
vn -0.0000 1.0000 -0.0000
vn -0.9165 0.4001 -0.0000
vn -0.1003 0.3481 0.9321
vn -0.1003 0.3481 -0.9321
vt 0.012023 1.996306
vt 0.792786 0.181908
vt 0.987977 1.996306
vt -0.057688 -0.703203
vt 0.207214 0.181908
vt 1.618511 -0.232548
vt -0.618510 -0.232548
vt 1.057688 -0.703202
s 0
f 6/1/1 3/2/1 5/3/1
f 1/4/2 3/2/2 4/5/2
f 3/2/3 2/6/3 5/3/3
f 4/5/4 6/1/4 1/7/4
f 6/1/1 4/5/1 3/2/1
f 1/4/2 2/8/2 3/2/2
